<?xml version="1.0" encoding="utf-8"?>
<svg viewBox="0 0 500 500" xmlns="http://www.w3.org/2000/svg">
  <g style="fill: none; fill-rule: evenodd; stroke: none; stroke-width: 1;" transform="matrix(2.395526, 0, 0, 2.395526, 67.673332, 343.496643)">
    <path class="a" d="M 105.918 -26.613 C 126.597 -25.003 147.101 -34.032 149.552 -56.818 C 149.658 -57.638 149.239 -58.441 148.515 -58.838 C 147.469 -59.343 146.216 -58.82 145.83 -57.727 C 135.258 -34.528 108.035 -42.725 97.1 -45.069 C 82.498 -48.569 67.565 -50.497 52.558 -50.81 C 31.887 -50.304 18.354 -44.637 6.037 -29.298 C -6.282 -13.955 -8.224 18.03 14.729 35.412 C 35.094 50.51 63.339 48.904 81.853 31.584 C 96.151 16.749 102.805 -3.833 99.913 -24.231 C 91.388 -25.472 83.135 -27.149 74.978 -28.663 C 45.474 -34.266 27.751 -28.663 19.326 -11.28 C 15.184 -3.014 15.184 6.716 19.326 14.974 C 23.974 23.825 32.562 29.936 42.46 31.415 C 54.415 33.956 66.877 30.866 76.25 23.029 C 87.13 13.695 92.796 -1.841 92.298 -20.604 L 95.483 -20.067 C 95.957 -0.57 89.784 15.575 78.334 25.48 C 68.228 33.971 54.762 37.332 41.848 34.575 C 31.088 32.91 21.748 26.27 16.642 16.652 C 12.067 7.496 12.067 -3.285 16.642 -12.455 C 20.807 -21.521 28.661 -28.369 38.228 -31.24 C 47.957 -34.331 60.243 -34.602 75.783 -31.549 C 86.858 -29.528 100.147 -26.982 105.918 -26.613 Z M 59.303 1.208 C 53.295 12.656 37.956 14.636 30.703 6.854 C 23.46 -0.938 27.518 -12.011 34.066 -17.582 C 42.396 -24.168 53.215 -26.699 63.595 -24.494 C 63.296 -13.554 62.495 -4.829 59.303 1.208 Z M 61.081 -53.561 C 73.372 -52.742 85.577 -50.917 97.564 -48.094 C 92.499 -69.779 97.564 -87.901 113.511 -93.907 C 129.403 -100.396 147.164 -90.202 149.583 -73.193 C 149.892 -71.555 150.693 -71.048 151.771 -70.92 C 152.971 -70.76 154.094 -71.523 154.386 -72.697 C 158.502 -87.892 153.437 -104.094 141.4 -114.246 C 130.846 -122.652 117.07 -125.874 103.878 -123.036 C 72.294 -116.46 59.438 -86.894 61.081 -53.561 Z M 152.946 -75.713 C 155.758 -88.399 141.665 -120.687 110.591 -117.399 C 97.871 -116.138 86.303 -109.491 78.799 -99.141 C 71.484 -88.537 68.735 -74.507 68.735 -57.29 L 65.581 -57.556 C 65.581 -68.531 66.152 -86.286 75.646 -100.113 C 83.238 -111.176 95.17 -118.501 108.478 -120.254 C 144.454 -125.021 157.305 -88.473 152.946 -75.713 Z" style="fill: rgb(47, 47, 49);"/>
    <ellipse style="stroke: rgb(0, 0, 0); stroke-width: 0px; fill: rgb(255, 255, 255);" cx="54.672" cy="-61.68" rx="53.462" ry="53.462"/>
    <path d="M 54.832 -8.218 C 51.755 -8.218 48.738 -8.478 45.803 -8.977 C 48.175 -15.883 48.879 -24.903 49.174 -35.723 C 36.723 -38.367 23.747 -35.352 13.732 -27.488 C 11.76 -29.855 9.989 -32.395 8.445 -35.082 C 20.434 -43.61 38.247 -45.42 62.881 -40.742 C 72.701 -38.92 82.638 -36.901 92.903 -35.406 C 93.397 -31.925 93.659 -28.439 93.697 -24.969 C 91.697 -22.853 89.526 -20.899 87.206 -19.131 C 87.54 -22.765 87.663 -26.524 87.569 -30.392 L 83.734 -31.039 C 83.871 -25.887 83.621 -20.937 83 -16.232 C 74.82 -11.152 65.169 -8.218 54.832 -8.218 Z M 54.832 -115.142 C 55.737 -115.142 56.637 -115.12 57.531 -115.075 C 51.981 -100.997 51.566 -85.799 51.566 -75.53 L 55.363 -75.21 C 55.363 -90.504 57.165 -103.71 61.647 -114.712 C 72.899 -113.28 83.059 -108.351 91.003 -101.048 C 87.045 -91.075 86.783 -78.231 90.074 -64.138 C 75.642 -67.537 60.947 -69.733 46.148 -70.72 C 45.359 -86.719 47.345 -101.997 52.428 -115.089 C 53.225 -115.124 54.026 -115.142 54.832 -115.142 Z M 63.85 -44.217 C 45.139 -47.893 30.347 -47.567 18.633 -43.845 C 14.371 -42.566 10.391 -40.631 6.814 -38.149 C 3.582 -44.732 1.663 -52.077 1.401 -59.843 C 11.084 -64.853 22.182 -67.072 35.886 -67.408 C 53.954 -67.031 71.935 -64.71 89.516 -60.495 C 93.972 -59.54 100.675 -57.777 108.087 -56.946 C 107.499 -50.237 105.67 -43.882 102.833 -38.114 C 101.934 -38.15 101.034 -38.204 100.133 -38.274 C 93.185 -38.718 77.185 -41.783 63.85 -44.217 Z" style="stroke: rgb(0, 0, 0); stroke-width: 0px; fill: rgb(108, 108, 108);"/>
    <path d="M 114.135 -15.682 L 106.131 -15.682 L 103.462 -18.351 C 112.801 -30.358 119.47 -45.034 119.47 -61.042 C 119.47 -97.064 90.12 -126.416 54.099 -126.416 C 18.077 -126.416 -11.275 -97.064 -11.275 -61.042 C -11.275 -25.021 18.077 4.329 54.099 4.329 C 70.107 4.329 84.782 -1.006 96.793 -11.679 L 99.459 -9.013 L 99.459 -1.006 L 148.822 48.357 L 163.498 33.681 L 114.135 -15.682 Z M 54.099 -15.682 C 28.75 -15.682 8.739 -35.694 8.739 -61.042 C 8.739 -86.391 28.75 -106.402 54.099 -106.402 C 79.447 -106.402 99.459 -86.391 99.459 -61.042 C 99.459 -35.694 79.447 -15.682 54.099 -15.682 Z" style="stroke-width: 4.92308; fill: rgb(66, 133, 244);"/>
  </g>
</svg>